<?xml version="1.0" encoding="UTF-8" standalone="no"?>
<svg
   xmlns:dc="http://purl.org/dc/elements/1.1/"
   xmlns:cc="http://creativecommons.org/ns#"
   xmlns:rdf="http://www.w3.org/1999/02/22-rdf-syntax-ns#"
   xmlns:svg="http://www.w3.org/2000/svg"
   xmlns="http://www.w3.org/2000/svg"
   xmlns:xlink="http://www.w3.org/1999/xlink"
   xmlns:sodipodi="http://sodipodi.sourceforge.net/DTD/sodipodi-0.dtd"
   xmlns:inkscape="http://www.inkscape.org/namespaces/inkscape"
   version="1.1"
   id="svg7165"
   viewBox="0 0 543.66899 320.62025"
   height="90.48616mm"
   width="153.43547mm"
   inkscape:version="0.91 r13725"
   sodipodi:docname="box_3.svg">
  <sodipodi:namedview
     pagecolor="#ffffff"
     bordercolor="#666666"
     borderopacity="1"
     objecttolerance="10"
     gridtolerance="10"
     guidetolerance="10"
     inkscape:pageopacity="0"
     inkscape:pageshadow="2"
     inkscape:window-width="1366"
     inkscape:window-height="741"
     id="namedview128"
     showgrid="false"
     inkscape:zoom="1.011645"
     inkscape:cx="319.75831"
     inkscape:cy="114.54849"
     inkscape:window-x="1366"
     inkscape:window-y="0"
     inkscape:window-maximized="1"
     inkscape:current-layer="layer1" />
  <defs
     id="defs7167">
    <marker
       style="overflow:visible"
       id="Arrow2Mend-0"
       refX="0"
       refY="0"
       orient="auto">
      <path
         transform="scale(-0.6,-0.6)"
         d="M 8.7185878,4.0337352 -2.2072895,0.01601326 8.7185884,-4.0017078 c -1.7454984,2.3720609 -1.7354408,5.6174519 -6e-7,8.035443 z"
         style="fill-rule:evenodd;stroke-width:0.625;stroke-linejoin:round"
         id="path4220-2" />
    </marker>
    <marker
       style="overflow:visible"
       id="marker7183"
       refX="0"
       refY="0"
       orient="auto">
      <path
         transform="scale(-0.6,-0.6)"
         d="M 8.7185878,4.0337352 -2.2072895,0.01601326 8.7185884,-4.0017078 c -1.7454984,2.3720609 -1.7354408,5.6174519 -6e-7,8.035443 z"
         style="fill-rule:evenodd;stroke-width:0.625;stroke-linejoin:round"
         id="path7185" />
    </marker>
    <marker
       style="overflow:visible"
       id="marker7187"
       refX="0"
       refY="0"
       orient="auto">
      <path
         transform="scale(-0.6,-0.6)"
         d="M 8.7185878,4.0337352 -2.2072895,0.01601326 8.7185884,-4.0017078 c -1.7454984,2.3720609 -1.7354408,5.6174519 -6e-7,8.035443 z"
         style="fill-rule:evenodd;stroke-width:0.625;stroke-linejoin:round"
         id="path7189" />
    </marker>
    <marker
       style="overflow:visible"
       id="marker7191"
       refX="0"
       refY="0"
       orient="auto">
      <path
         transform="scale(-0.6,-0.6)"
         d="M 8.7185878,4.0337352 -2.2072895,0.01601326 8.7185884,-4.0017078 c -1.7454984,2.3720609 -1.7354408,5.6174519 -6e-7,8.035443 z"
         style="fill-rule:evenodd;stroke-width:0.625;stroke-linejoin:round"
         id="path7193" />
    </marker>
    <marker
       style="overflow:visible"
       id="marker7195"
       refX="0"
       refY="0"
       orient="auto">
      <path
         transform="scale(-0.6,-0.6)"
         d="M 8.7185878,4.0337352 -2.2072895,0.01601326 8.7185884,-4.0017078 c -1.7454984,2.3720609 -1.7354408,5.6174519 -6e-7,8.035443 z"
         style="fill-rule:evenodd;stroke-width:0.625;stroke-linejoin:round"
         id="path7197" />
    </marker>
    <marker
       style="overflow:visible"
       id="marker7199"
       refX="0"
       refY="0"
       orient="auto">
      <path
         transform="scale(-0.6,-0.6)"
         d="M 8.7185878,4.0337352 -2.2072895,0.01601326 8.7185884,-4.0017078 c -1.7454984,2.3720609 -1.7354408,5.6174519 -6e-7,8.035443 z"
         style="fill-rule:evenodd;stroke-width:0.625;stroke-linejoin:round"
         id="path7201" />
    </marker>
    <marker
       style="overflow:visible"
       id="Arrow2Mend-0-3"
       refX="0"
       refY="0"
       orient="auto">
      <path
         transform="scale(-0.6,-0.6)"
         d="M 8.7185878,4.0337352 -2.2072895,0.01601326 8.7185884,-4.0017078 c -1.7454984,2.3720609 -1.7354408,5.6174519 -6e-7,8.035443 z"
         style="fill-rule:evenodd;stroke-width:0.625;stroke-linejoin:round"
         id="path4220-2-6" />
    </marker>
    <marker
       style="overflow:visible"
       id="marker7518"
       refX="0"
       refY="0"
       orient="auto">
      <path
         transform="scale(-0.6,-0.6)"
         d="M 8.7185878,4.0337352 -2.2072895,0.01601326 8.7185884,-4.0017078 c -1.7454984,2.3720609 -1.7354408,5.6174519 -6e-7,8.035443 z"
         style="fill-rule:evenodd;stroke-width:0.625;stroke-linejoin:round"
         id="path7520" />
    </marker>
    <marker
       style="overflow:visible"
       id="marker7522"
       refX="0"
       refY="0"
       orient="auto">
      <path
         transform="scale(-0.6,-0.6)"
         d="M 8.7185878,4.0337352 -2.2072895,0.01601326 8.7185884,-4.0017078 c -1.7454984,2.3720609 -1.7354408,5.6174519 -6e-7,8.035443 z"
         style="fill-rule:evenodd;stroke-width:0.625;stroke-linejoin:round"
         id="path7524" />
    </marker>
    <marker
       style="overflow:visible"
       id="marker7526"
       refX="0"
       refY="0"
       orient="auto">
      <path
         transform="scale(-0.6,-0.6)"
         d="M 8.7185878,4.0337352 -2.2072895,0.01601326 8.7185884,-4.0017078 c -1.7454984,2.3720609 -1.7354408,5.6174519 -6e-7,8.035443 z"
         style="fill-rule:evenodd;stroke-width:0.625;stroke-linejoin:round"
         id="path7528" />
    </marker>
    <marker
       style="overflow:visible"
       id="marker7530"
       refX="0"
       refY="0"
       orient="auto">
      <path
         transform="scale(-0.6,-0.6)"
         d="M 8.7185878,4.0337352 -2.2072895,0.01601326 8.7185884,-4.0017078 c -1.7454984,2.3720609 -1.7354408,5.6174519 -6e-7,8.035443 z"
         style="fill-rule:evenodd;stroke-width:0.625;stroke-linejoin:round"
         id="path7532" />
    </marker>
    <marker
       style="overflow:visible"
       id="marker7534"
       refX="0"
       refY="0"
       orient="auto">
      <path
         transform="scale(-0.6,-0.6)"
         d="M 8.7185878,4.0337352 -2.2072895,0.01601326 8.7185884,-4.0017078 c -1.7454984,2.3720609 -1.7354408,5.6174519 -6e-7,8.035443 z"
         style="fill-rule:evenodd;stroke-width:0.625;stroke-linejoin:round"
         id="path7536" />
    </marker>
    <marker
       style="overflow:visible"
       id="marker7538"
       refX="0"
       refY="0"
       orient="auto">
      <path
         transform="scale(-0.6,-0.6)"
         d="M 8.7185878,4.0337352 -2.2072895,0.01601326 8.7185884,-4.0017078 c -1.7454984,2.3720609 -1.7354408,5.6174519 -6e-7,8.035443 z"
         style="fill-rule:evenodd;stroke-width:0.625;stroke-linejoin:round"
         id="path7540" />
    </marker>
    <marker
       style="overflow:visible"
       id="marker7542"
       refX="0"
       refY="0"
       orient="auto">
      <path
         transform="scale(-0.6,-0.6)"
         d="M 8.7185878,4.0337352 -2.2072895,0.01601326 8.7185884,-4.0017078 c -1.7454984,2.3720609 -1.7354408,5.6174519 -6e-7,8.035443 z"
         style="fill-rule:evenodd;stroke-width:0.625;stroke-linejoin:round"
         id="path7544" />
    </marker>
    <marker
       style="overflow:visible"
       id="marker7546"
       refX="0"
       refY="0"
       orient="auto">
      <path
         transform="scale(-0.6,-0.6)"
         d="M 8.7185878,4.0337352 -2.2072895,0.01601326 8.7185884,-4.0017078 c -1.7454984,2.3720609 -1.7354408,5.6174519 -6e-7,8.035443 z"
         style="fill-rule:evenodd;stroke-width:0.625;stroke-linejoin:round"
         id="path7548" />
    </marker>
    <marker
       style="overflow:visible"
       id="marker7550"
       refX="0"
       refY="0"
       orient="auto">
      <path
         transform="scale(-0.6,-0.6)"
         d="M 8.7185878,4.0337352 -2.2072895,0.01601326 8.7185884,-4.0017078 c -1.7454984,2.3720609 -1.7354408,5.6174519 -6e-7,8.035443 z"
         style="fill-rule:evenodd;stroke-width:0.625;stroke-linejoin:round"
         id="path7552" />
    </marker>
    <marker
       style="overflow:visible"
       id="marker7554"
       refX="0"
       refY="0"
       orient="auto">
      <path
         transform="scale(-0.6,-0.6)"
         d="M 8.7185878,4.0337352 -2.2072895,0.01601326 8.7185884,-4.0017078 c -1.7454984,2.3720609 -1.7354408,5.6174519 -6e-7,8.035443 z"
         style="fill-rule:evenodd;stroke-width:0.625;stroke-linejoin:round"
         id="path7556" />
    </marker>
    <marker
       style="overflow:visible"
       id="marker7558"
       refX="0"
       refY="0"
       orient="auto">
      <path
         transform="scale(-0.6,-0.6)"
         d="M 8.7185878,4.0337352 -2.2072895,0.01601326 8.7185884,-4.0017078 c -1.7454984,2.3720609 -1.7354408,5.6174519 -6e-7,8.035443 z"
         style="fill-rule:evenodd;stroke-width:0.625;stroke-linejoin:round"
         id="path7560" />
    </marker>
    <linearGradient
       y2="603.79077"
       x2="640"
       y1="312.36218"
       x1="382.85715"
       gradientUnits="userSpaceOnUse"
       id="linearGradient8829"
       xlink:href="#linearGradient4118-6-3" />
    <linearGradient
       id="linearGradient4118-6-3">
      <stop
         id="stop4120-7-3"
         offset="0"
         style="stop-color:#d4d4d4;stop-opacity:1;" />
      <stop
         id="stop4122-5-44"
         offset="1"
         style="stop-color:#000000;stop-opacity:1" />
    </linearGradient>
    <marker
       style="overflow:visible"
       id="Arrow2Mend-0-7"
       refX="0"
       refY="0"
       orient="auto">
      <path
         transform="scale(-0.6,-0.6)"
         d="M 8.7185878,4.0337352 -2.2072895,0.01601326 8.7185884,-4.0017078 c -1.7454984,2.3720609 -1.7354408,5.6174519 -6e-7,8.035443 z"
         style="fill-rule:evenodd;stroke-width:0.625;stroke-linejoin:round"
         id="path4220-2-5" />
    </marker>
    <marker
       style="overflow:visible"
       id="marker8218"
       refX="0"
       refY="0"
       orient="auto">
      <path
         transform="scale(-0.6,-0.6)"
         d="M 8.7185878,4.0337352 -2.2072895,0.01601326 8.7185884,-4.0017078 c -1.7454984,2.3720609 -1.7354408,5.6174519 -6e-7,8.035443 z"
         style="fill-rule:evenodd;stroke-width:0.625;stroke-linejoin:round"
         id="path8220" />
    </marker>
    <marker
       style="overflow:visible"
       id="marker8222"
       refX="0"
       refY="0"
       orient="auto">
      <path
         transform="scale(-0.6,-0.6)"
         d="M 8.7185878,4.0337352 -2.2072895,0.01601326 8.7185884,-4.0017078 c -1.7454984,2.3720609 -1.7354408,5.6174519 -6e-7,8.035443 z"
         style="fill-rule:evenodd;stroke-width:0.625;stroke-linejoin:round"
         id="path8224" />
    </marker>
    <marker
       style="overflow:visible"
       id="marker8226"
       refX="0"
       refY="0"
       orient="auto">
      <path
         transform="scale(-0.6,-0.6)"
         d="M 8.7185878,4.0337352 -2.2072895,0.01601326 8.7185884,-4.0017078 c -1.7454984,2.3720609 -1.7354408,5.6174519 -6e-7,8.035443 z"
         style="fill-rule:evenodd;stroke-width:0.625;stroke-linejoin:round"
         id="path8228" />
    </marker>
    <marker
       style="overflow:visible"
       id="marker8230"
       refX="0"
       refY="0"
       orient="auto">
      <path
         transform="scale(-0.6,-0.6)"
         d="M 8.7185878,4.0337352 -2.2072895,0.01601326 8.7185884,-4.0017078 c -1.7454984,2.3720609 -1.7354408,5.6174519 -6e-7,8.035443 z"
         style="fill-rule:evenodd;stroke-width:0.625;stroke-linejoin:round"
         id="path8232" />
    </marker>
    <marker
       style="overflow:visible"
       id="marker8234"
       refX="0"
       refY="0"
       orient="auto">
      <path
         transform="scale(-0.6,-0.6)"
         d="M 8.7185878,4.0337352 -2.2072895,0.01601326 8.7185884,-4.0017078 c -1.7454984,2.3720609 -1.7354408,5.6174519 -6e-7,8.035443 z"
         style="fill-rule:evenodd;stroke-width:0.625;stroke-linejoin:round"
         id="path8236" />
    </marker>
  </defs>
  <metadata
     id="metadata7170">
    <rdf:RDF>
      <cc:Work
         rdf:about="">
        <dc:format>image/svg+xml</dc:format>
        <dc:type
           rdf:resource="http://purl.org/dc/dcmitype/StillImage" />
        <dc:title />
      </cc:Work>
    </rdf:RDF>
  </metadata>
  <g
     transform="translate(-130.87182,-447.75152)"
     id="layer1">
    <g
       id="g7916"
       style="display:inline"
       transform="translate(-86.459183,339.37177)">
      <g
         id="g7918"
         style="fill:#000000;fill-opacity:1;fill-rule:nonzero;stroke:#000000;stroke-width:1;stroke-linejoin:round;stroke-miterlimit:4;stroke-dasharray:none;stroke-dashoffset:0;stroke-opacity:1">
        <path
           d="m 564.06335,306.76554 -96.4707,0 0,77.70549 96.4707,0 z"
           style="fill:#8686bf;fill-rule:evenodd;stroke:none"
           id="path7920" />
        <path
           d="m 467.59265,306.76554 0,77.70549 -33.51049,33.51049 0,-77.70549 z"
           style="fill:#d7d7ff;fill-rule:evenodd;stroke:none"
           id="path7922" />
        <path
           d="m 564.06335,384.47103 -96.4707,0 -33.51049,33.51049 96.4707,0 z"
           style="fill:#afafde;fill-rule:evenodd;stroke:none"
           id="path7925" />
        <path
           d="m 564.06335,306.76554 -96.4707,0 -33.51049,33.51049 96.4707,0 z"
           style="fill:#b0b0b0;fill-opacity:1;fill-rule:evenodd;stroke:none"
           id="path7927" />
        <path
           d="m 564.06335,306.76554 0,77.70549 -33.51049,33.51049 0,-77.70549 z"
           style="fill:#5a5a5a;fill-opacity:1;fill-rule:evenodd;stroke:none"
           id="path7929" />
        <path
           d="m 530.55286,340.27603 -96.4707,0 0,77.70549 96.4707,0 z"
           style="fill:#d9d9d9;fill-opacity:1;fill-rule:evenodd;stroke:none"
           id="path7931" />
      </g>
      <g
         id="g7933"
         transform="matrix(0.77705487,0,0,0.77705487,204.18981,53.83418)">
        <path
           id="path7935"
           d="m 380,348 0,-90"
           style="fill:none;stroke:#000000;stroke-width:3;stroke-linecap:butt;stroke-linejoin:miter;stroke-miterlimit:4;stroke-dasharray:none;stroke-opacity:1" />
        <circle
           transform="translate(-20.034756,0.52873179)"
           id="circle7937"
           style="color:#000000;display:inline;overflow:visible;visibility:visible;fill:#000000;fill-opacity:1;fill-rule:nonzero;stroke:#000000;stroke-width:1;stroke-linecap:butt;stroke-linejoin:miter;stroke-miterlimit:4;stroke-dasharray:none;stroke-dashoffset:0;stroke-opacity:1;marker:none;enable-background:accumulate"
           cx="400"
           cy="253"
           r="5" />
      </g>
      <g
         transform="matrix(0.67294925,0.38852743,-0.38852743,0.67294925,394.79195,-57.226029)"
         id="g7939">
        <path
           id="path7942"
           d="m 380,348 0,-90"
           style="fill:none;stroke:#000000;stroke-width:3;stroke-linecap:butt;stroke-linejoin:miter;stroke-miterlimit:4;stroke-dasharray:none;stroke-opacity:1" />
        <circle
           transform="translate(-20.034756,0.52873179)"
           id="circle7944"
           style="color:#000000;display:inline;overflow:visible;visibility:visible;fill:#000000;fill-opacity:1;fill-rule:nonzero;stroke:#000000;stroke-width:1;stroke-linecap:butt;stroke-linejoin:miter;stroke-miterlimit:4;stroke-dasharray:none;stroke-dashoffset:0;stroke-opacity:1;marker:none;enable-background:accumulate"
           cx="400"
           cy="253"
           r="5" />
      </g>
      <g
         transform="matrix(0.67294925,-0.38852743,0.38852743,0.67294925,92.86988,237.99415)"
         id="g7946">
        <path
           id="path7948"
           d="m 380,348 0,-90"
           style="fill:none;stroke:#000000;stroke-width:3;stroke-linecap:butt;stroke-linejoin:miter;stroke-miterlimit:4;stroke-dasharray:none;stroke-opacity:1" />
        <circle
           transform="translate(-20.034756,0.52873179)"
           id="circle7950"
           style="color:#000000;display:inline;overflow:visible;visibility:visible;fill:#000000;fill-opacity:1;fill-rule:nonzero;stroke:#000000;stroke-width:1;stroke-linecap:butt;stroke-linejoin:miter;stroke-miterlimit:4;stroke-dasharray:none;stroke-dashoffset:0;stroke-opacity:1;marker:none;enable-background:accumulate"
           cx="400"
           cy="253"
           r="5" />
      </g>
    </g>
    <path
       id="path7956"
       d="m 258.10332,712.37177 60,0"
       style="display:inline;fill:none;stroke:#000000;stroke-width:3;stroke-linecap:butt;stroke-linejoin:miter;stroke-miterlimit:4;stroke-dasharray:none;stroke-opacity:1;marker-end:url(#Arrow2Mend-0-7)" />
    <g
       transform="translate(-88.459183,404.25335)"
       style="font-style:normal;font-variant:normal;font-weight:normal;font-stretch:normal;font-size:32px;line-height:125%;font-family:'Linux Biolinum O';-inkscape-font-specification:Sans;text-align:end;letter-spacing:0px;word-spacing:0px;text-anchor:end;display:inline;fill:#000000;fill-opacity:1;stroke:none"
       id="flowRoot7958">
      <path
         d="m 226.307,312.07042 0,-8.128 c 0,-3.456 0.192,-4.736 0.256,-5.184 0,-0.16 -0.096,-0.16 -0.224,-0.16 -2.08,0.672 -4.512,1.92 -7.008,2.688 l 0.192,0.928 c 1.44,-0.16 3.008,-0.512 3.648,-0.512 0.576,0 0.576,1.28 0.576,2.432 l 0,7.936 c 0,2.496 -0.032,4.224 -0.256,6.048 l 0.032,0.096 c 0,0 0.896,-0.096 1.472,-0.096 0.64,0 1.536,0.096 1.536,0.096 l 0.064,-0.096 c -0.224,-1.92 -0.288,-3.52 -0.288,-6.048 z"
         style=""
         id="path3487" />
      <path
         d="m 238.206,299.84642 c 0.544,0 1.056,0.192 1.408,0.512 0.992,0.832 1.856,3.328 1.856,7.616 0,2.944 -0.096,4.608 -0.544,6.24 -0.704,2.656 -2.272,2.976 -2.848,2.976 -2.976,0 -3.328,-5.472 -3.328,-8.256 0,-7.904 1.984,-9.088 3.456,-9.088 z m -0.16,18.592 c 2.464,0 6.176,-2.72 6.176,-10.208 0,-4.992 -1.824,-7.456 -2.976,-8.512 -0.864,-0.8 -1.888,-1.12 -3.04,-1.12 -3.2,0 -6.208,3.968 -6.208,10.272 0,5.184 2.08,9.568 6.048,9.568 z"
         style=""
         id="path3489" />
      <path
         d="m 256.057,312.07042 0,-8.128 c 0,-3.456 0.192,-4.736 0.256,-5.184 0,-0.16 -0.096,-0.16 -0.224,-0.16 -2.08,0.672 -4.512,1.92 -7.008,2.688 l 0.192,0.928 c 1.44,-0.16 3.008,-0.512 3.648,-0.512 0.576,0 0.576,1.28 0.576,2.432 l 0,7.936 c 0,2.496 -0.032,4.224 -0.256,6.048 l 0.032,0.096 c 0,0 0.896,-0.096 1.472,-0.096 0.64,0 1.536,0.096 1.536,0.096 l 0.064,-0.096 c -0.224,-1.92 -0.288,-3.52 -0.288,-6.048 z"
         style=""
         id="path3491" />
      <path
         d="m 267.956,299.84642 c 0.544,0 1.056,0.192 1.408,0.512 0.992,0.832 1.856,3.328 1.856,7.616 0,2.944 -0.096,4.608 -0.544,6.24 -0.704,2.656 -2.272,2.976 -2.848,2.976 -2.976,0 -3.328,-5.472 -3.328,-8.256 0,-7.904 1.984,-9.088 3.456,-9.088 z m -0.16,18.592 c 2.464,0 6.176,-2.72 6.176,-10.208 0,-4.992 -1.824,-7.456 -2.976,-8.512 -0.864,-0.8 -1.888,-1.12 -3.04,-1.12 -3.2,0 -6.208,3.968 -6.208,10.272 0,5.184 2.08,9.568 6.048,9.568 z"
         style=""
         id="path3493" />
      <path
         d="m 285.807,312.07042 0,-8.128 c 0,-3.456 0.192,-4.736 0.256,-5.184 0,-0.16 -0.096,-0.16 -0.224,-0.16 -2.08,0.672 -4.512,1.92 -7.008,2.688 l 0.192,0.928 c 1.44,-0.16 3.008,-0.512 3.648,-0.512 0.576,0 0.576,1.28 0.576,2.432 l 0,7.936 c 0,2.496 -0.032,4.224 -0.256,6.048 l 0.032,0.096 c 0,0 0.896,-0.096 1.472,-0.096 0.64,0 1.536,0.096 1.536,0.096 l 0.064,-0.096 c -0.224,-1.92 -0.288,-3.52 -0.288,-6.048 z"
         style=""
         id="path3495" />
      <path
         d="m 297.706,299.84642 c 0.544,0 1.056,0.192 1.408,0.512 0.992,0.832 1.856,3.328 1.856,7.616 0,2.944 -0.096,4.608 -0.544,6.24 -0.704,2.656 -2.272,2.976 -2.848,2.976 -2.976,0 -3.328,-5.472 -3.328,-8.256 0,-7.904 1.984,-9.088 3.456,-9.088 z m -0.16,18.592 c 2.464,0 6.176,-2.72 6.176,-10.208 0,-4.992 -1.824,-7.456 -2.976,-8.512 -0.864,-0.8 -1.888,-1.12 -3.04,-1.12 -3.2,0 -6.208,3.968 -6.208,10.272 0,5.184 2.08,9.568 6.048,9.568 z"
         style=""
         id="path3497" />
      <path
         d="m 312.581,299.84642 c 0.544,0 1.056,0.192 1.408,0.512 0.992,0.832 1.856,3.328 1.856,7.616 0,2.944 -0.096,4.608 -0.544,6.24 -0.704,2.656 -2.272,2.976 -2.848,2.976 -2.976,0 -3.328,-5.472 -3.328,-8.256 0,-7.904 1.984,-9.088 3.456,-9.088 z m -0.16,18.592 c 2.464,0 6.176,-2.72 6.176,-10.208 0,-4.992 -1.824,-7.456 -2.976,-8.512 -0.864,-0.8 -1.888,-1.12 -3.04,-1.12 -3.2,0 -6.208,3.968 -6.208,10.272 0,5.184 2.08,9.568 6.048,9.568 z"
         style=""
         id="path3499" />
    </g>
    <g
       transform="translate(-88.459183,439.25335)"
       style="font-style:normal;font-variant:normal;font-weight:normal;font-stretch:normal;font-size:32px;line-height:125%;font-family:'Linux Biolinum O';-inkscape-font-specification:Sans;text-align:end;letter-spacing:0px;word-spacing:0px;text-anchor:end;display:inline;fill:#000000;fill-opacity:1;stroke:none"
       id="flowRoot7966">
      <path
         d="m 226.307,312.07042 0,-8.128 c 0,-3.456 0.192,-4.736 0.256,-5.184 0,-0.16 -0.096,-0.16 -0.224,-0.16 -2.08,0.672 -4.512,1.92 -7.008,2.688 l 0.192,0.928 c 1.44,-0.16 3.008,-0.512 3.648,-0.512 0.576,0 0.576,1.28 0.576,2.432 l 0,7.936 c 0,2.496 -0.032,4.224 -0.256,6.048 l 0.032,0.096 c 0,0 0.896,-0.096 1.472,-0.096 0.64,0 1.536,0.096 1.536,0.096 l 0.064,-0.096 c -0.224,-1.92 -0.288,-3.52 -0.288,-6.048 z"
         style=""
         id="path3472" />
      <path
         d="m 241.182,312.07042 0,-8.128 c 0,-3.456 0.192,-4.736 0.256,-5.184 0,-0.16 -0.096,-0.16 -0.224,-0.16 -2.08,0.672 -4.512,1.92 -7.008,2.688 l 0.192,0.928 c 1.44,-0.16 3.008,-0.512 3.648,-0.512 0.576,0 0.576,1.28 0.576,2.432 l 0,7.936 c 0,2.496 -0.032,4.224 -0.256,6.048 l 0.032,0.096 c 0,0 0.896,-0.096 1.472,-0.096 0.64,0 1.536,0.096 1.536,0.096 l 0.064,-0.096 c -0.224,-1.92 -0.288,-3.52 -0.288,-6.048 z"
         style=""
         id="path3474" />
      <path
         d="m 256.057,312.07042 0,-8.128 c 0,-3.456 0.192,-4.736 0.256,-5.184 0,-0.16 -0.096,-0.16 -0.224,-0.16 -2.08,0.672 -4.512,1.92 -7.008,2.688 l 0.192,0.928 c 1.44,-0.16 3.008,-0.512 3.648,-0.512 0.576,0 0.576,1.28 0.576,2.432 l 0,7.936 c 0,2.496 -0.032,4.224 -0.256,6.048 l 0.032,0.096 c 0,0 0.896,-0.096 1.472,-0.096 0.64,0 1.536,0.096 1.536,0.096 l 0.064,-0.096 c -0.224,-1.92 -0.288,-3.52 -0.288,-6.048 z"
         style=""
         id="path3476" />
      <path
         d="m 270.932,312.07042 0,-8.128 c 0,-3.456 0.192,-4.736 0.256,-5.184 0,-0.16 -0.096,-0.16 -0.224,-0.16 -2.08,0.672 -4.512,1.92 -7.008,2.688 l 0.192,0.928 c 1.44,-0.16 3.008,-0.512 3.648,-0.512 0.576,0 0.576,1.28 0.576,2.432 l 0,7.936 c 0,2.496 -0.032,4.224 -0.256,6.048 l 0.032,0.096 c 0,0 0.896,-0.096 1.472,-0.096 0.64,0 1.536,0.096 1.536,0.096 l 0.064,-0.096 c -0.224,-1.92 -0.288,-3.52 -0.288,-6.048 z"
         style=""
         id="path3478" />
      <path
         d="m 282.831,299.84642 c 0.544,0 1.056,0.192 1.408,0.512 0.992,0.832 1.856,3.328 1.856,7.616 0,2.944 -0.096,4.608 -0.544,6.24 -0.704,2.656 -2.272,2.976 -2.848,2.976 -2.976,0 -3.328,-5.472 -3.328,-8.256 0,-7.904 1.984,-9.088 3.456,-9.088 z m -0.16,18.592 c 2.464,0 6.176,-2.72 6.176,-10.208 0,-4.992 -1.824,-7.456 -2.976,-8.512 -0.864,-0.8 -1.888,-1.12 -3.04,-1.12 -3.2,0 -6.208,3.968 -6.208,10.272 0,5.184 2.08,9.568 6.048,9.568 z"
         style=""
         id="path3480" />
      <path
         d="m 297.706,299.84642 c 0.544,0 1.056,0.192 1.408,0.512 0.992,0.832 1.856,3.328 1.856,7.616 0,2.944 -0.096,4.608 -0.544,6.24 -0.704,2.656 -2.272,2.976 -2.848,2.976 -2.976,0 -3.328,-5.472 -3.328,-8.256 0,-7.904 1.984,-9.088 3.456,-9.088 z m -0.16,18.592 c 2.464,0 6.176,-2.72 6.176,-10.208 0,-4.992 -1.824,-7.456 -2.976,-8.512 -0.864,-0.8 -1.888,-1.12 -3.04,-1.12 -3.2,0 -6.208,3.968 -6.208,10.272 0,5.184 2.08,9.568 6.048,9.568 z"
         style=""
         id="path3482" />
      <path
         d="m 315.557,312.07042 0,-8.128 c 0,-3.456 0.192,-4.736 0.256,-5.184 0,-0.16 -0.096,-0.16 -0.224,-0.16 -2.08,0.672 -4.512,1.92 -7.008,2.688 l 0.192,0.928 c 1.44,-0.16 3.008,-0.512 3.648,-0.512 0.576,0 0.576,1.28 0.576,2.432 l 0,7.936 c 0,2.496 -0.032,4.224 -0.256,6.048 l 0.032,0.096 c 0,0 0.896,-0.096 1.472,-0.096 0.64,0 1.536,0.096 1.536,0.096 l 0.064,-0.096 c -0.224,-1.92 -0.288,-3.52 -0.288,-6.048 z"
         style=""
         id="path3484" />
    </g>
    <g
       transform="translate(-88.459183,369.25335)"
       style="font-style:normal;font-variant:normal;font-weight:normal;font-stretch:normal;font-size:32px;line-height:125%;font-family:'Linux Biolinum O';-inkscape-font-specification:Sans;text-align:end;letter-spacing:0px;word-spacing:0px;text-anchor:end;display:inline;fill:#000000;fill-opacity:1;stroke:none"
       id="flowRoot7974">
      <path
         d="m 226.307,312.07042 0,-8.128 c 0,-3.456 0.192,-4.736 0.256,-5.184 0,-0.16 -0.096,-0.16 -0.224,-0.16 -2.08,0.672 -4.512,1.92 -7.008,2.688 l 0.192,0.928 c 1.44,-0.16 3.008,-0.512 3.648,-0.512 0.576,0 0.576,1.28 0.576,2.432 l 0,7.936 c 0,2.496 -0.032,4.224 -0.256,6.048 l 0.032,0.096 c 0,0 0.896,-0.096 1.472,-0.096 0.64,0 1.536,0.096 1.536,0.096 l 0.064,-0.096 c -0.224,-1.92 -0.288,-3.52 -0.288,-6.048 z"
         style=""
         id="path3457" />
      <path
         d="m 238.206,299.84642 c 0.544,0 1.056,0.192 1.408,0.512 0.992,0.832 1.856,3.328 1.856,7.616 0,2.944 -0.096,4.608 -0.544,6.24 -0.704,2.656 -2.272,2.976 -2.848,2.976 -2.976,0 -3.328,-5.472 -3.328,-8.256 0,-7.904 1.984,-9.088 3.456,-9.088 z m -0.16,18.592 c 2.464,0 6.176,-2.72 6.176,-10.208 0,-4.992 -1.824,-7.456 -2.976,-8.512 -0.864,-0.8 -1.888,-1.12 -3.04,-1.12 -3.2,0 -6.208,3.968 -6.208,10.272 0,5.184 2.08,9.568 6.048,9.568 z"
         style=""
         id="path3459" />
      <path
         d="m 253.081,299.84642 c 0.544,0 1.056,0.192 1.408,0.512 0.992,0.832 1.856,3.328 1.856,7.616 0,2.944 -0.096,4.608 -0.544,6.24 -0.704,2.656 -2.272,2.976 -2.848,2.976 -2.976,0 -3.328,-5.472 -3.328,-8.256 0,-7.904 1.984,-9.088 3.456,-9.088 z m -0.16,18.592 c 2.464,0 6.176,-2.72 6.176,-10.208 0,-4.992 -1.824,-7.456 -2.976,-8.512 -0.864,-0.8 -1.888,-1.12 -3.04,-1.12 -3.2,0 -6.208,3.968 -6.208,10.272 0,5.184 2.08,9.568 6.048,9.568 z"
         style=""
         id="path3461" />
      <path
         d="m 270.932,312.07042 0,-8.128 c 0,-3.456 0.192,-4.736 0.256,-5.184 0,-0.16 -0.096,-0.16 -0.224,-0.16 -2.08,0.672 -4.512,1.92 -7.008,2.688 l 0.192,0.928 c 1.44,-0.16 3.008,-0.512 3.648,-0.512 0.576,0 0.576,1.28 0.576,2.432 l 0,7.936 c 0,2.496 -0.032,4.224 -0.256,6.048 l 0.032,0.096 c 0,0 0.896,-0.096 1.472,-0.096 0.64,0 1.536,0.096 1.536,0.096 l 0.064,-0.096 c -0.224,-1.92 -0.288,-3.52 -0.288,-6.048 z"
         style=""
         id="path3463" />
      <path
         d="m 282.831,299.84642 c 0.544,0 1.056,0.192 1.408,0.512 0.992,0.832 1.856,3.328 1.856,7.616 0,2.944 -0.096,4.608 -0.544,6.24 -0.704,2.656 -2.272,2.976 -2.848,2.976 -2.976,0 -3.328,-5.472 -3.328,-8.256 0,-7.904 1.984,-9.088 3.456,-9.088 z m -0.16,18.592 c 2.464,0 6.176,-2.72 6.176,-10.208 0,-4.992 -1.824,-7.456 -2.976,-8.512 -0.864,-0.8 -1.888,-1.12 -3.04,-1.12 -3.2,0 -6.208,3.968 -6.208,10.272 0,5.184 2.08,9.568 6.048,9.568 z"
         style=""
         id="path3465" />
      <path
         d="m 300.682,312.07042 0,-8.128 c 0,-3.456 0.192,-4.736 0.256,-5.184 0,-0.16 -0.096,-0.16 -0.224,-0.16 -2.08,0.672 -4.512,1.92 -7.008,2.688 l 0.192,0.928 c 1.44,-0.16 3.008,-0.512 3.648,-0.512 0.576,0 0.576,1.28 0.576,2.432 l 0,7.936 c 0,2.496 -0.032,4.224 -0.256,6.048 l 0.032,0.096 c 0,0 0.896,-0.096 1.472,-0.096 0.64,0 1.536,0.096 1.536,0.096 l 0.064,-0.096 c -0.224,-1.92 -0.288,-3.52 -0.288,-6.048 z"
         style=""
         id="path3467" />
      <path
         d="m 315.557,312.07042 0,-8.128 c 0,-3.456 0.192,-4.736 0.256,-5.184 0,-0.16 -0.096,-0.16 -0.224,-0.16 -2.08,0.672 -4.512,1.92 -7.008,2.688 l 0.192,0.928 c 1.44,-0.16 3.008,-0.512 3.648,-0.512 0.576,0 0.576,1.28 0.576,2.432 l 0,7.936 c 0,2.496 -0.032,4.224 -0.256,6.048 l 0.032,0.096 c 0,0 0.896,-0.096 1.472,-0.096 0.64,0 1.536,0.096 1.536,0.096 l 0.064,-0.096 c -0.224,-1.92 -0.288,-3.52 -0.288,-6.048 z"
         style=""
         id="path3469" />
    </g>
    <g
       transform="translate(399.10332,403.25335)"
       style="font-style:normal;font-variant:normal;font-weight:normal;font-stretch:normal;font-size:32px;line-height:125%;font-family:'Linux Biolinum O';-inkscape-font-specification:Sans;text-align:start;letter-spacing:0px;word-spacing:0px;text-anchor:start;display:inline;fill:#000000;fill-opacity:1;stroke:none"
       id="flowRoot7982">
      <path
         d="m 205.8935,299.84642 c 0.544,0 1.056,0.192 1.408,0.512 0.992,0.832 1.856,3.328 1.856,7.616 0,2.944 -0.096,4.608 -0.544,6.24 -0.704,2.656 -2.272,2.976 -2.848,2.976 -2.976,0 -3.328,-5.472 -3.328,-8.256 0,-7.904 1.984,-9.088 3.456,-9.088 z m -0.16,18.592 c 2.464,0 6.176,-2.72 6.176,-10.208 0,-4.992 -1.824,-7.456 -2.976,-8.512 -0.864,-0.8 -1.888,-1.12 -3.04,-1.12 -3.2,0 -6.208,3.968 -6.208,10.272 0,5.184 2.08,9.568 6.048,9.568 z"
         style=""
         id="path3518" />
    </g>
    <g
       transform="translate(399.10332,368.25335)"
       style="font-style:normal;font-variant:normal;font-weight:normal;font-stretch:normal;font-size:32px;line-height:125%;font-family:'Linux Biolinum O';-inkscape-font-specification:Sans;text-align:start;letter-spacing:0px;word-spacing:0px;text-anchor:start;display:inline;fill:#000000;fill-opacity:1;stroke:none"
       id="flowRoot7990">
      <path
         d="m 208.8695,312.07042 0,-8.128 c 0,-3.456 0.192,-4.736 0.256,-5.184 0,-0.16 -0.096,-0.16 -0.224,-0.16 -2.08,0.672 -4.512,1.92 -7.008,2.688 l 0.192,0.928 c 1.44,-0.16 3.008,-0.512 3.648,-0.512 0.576,0 0.576,1.28 0.576,2.432 l 0,7.936 c 0,2.496 -0.032,4.224 -0.256,6.048 l 0.032,0.096 c 0,0 0.896,-0.096 1.472,-0.096 0.64,0 1.536,0.096 1.536,0.096 l 0.064,-0.096 c -0.224,-1.92 -0.288,-3.52 -0.288,-6.048 z"
         style=""
         id="path3515" />
    </g>
    <g
       transform="translate(399.10332,438.25335)"
       style="font-style:normal;font-variant:normal;font-weight:normal;font-stretch:normal;font-size:32px;line-height:125%;font-family:'Linux Biolinum O';-inkscape-font-specification:Sans;text-align:start;letter-spacing:0px;word-spacing:0px;text-anchor:start;display:inline;fill:#000000;fill-opacity:1;stroke:none"
       id="flowRoot7998">
      <path
         d="m 205.8935,299.84642 c 0.544,0 1.056,0.192 1.408,0.512 0.992,0.832 1.856,3.328 1.856,7.616 0,2.944 -0.096,4.608 -0.544,6.24 -0.704,2.656 -2.272,2.976 -2.848,2.976 -2.976,0 -3.328,-5.472 -3.328,-8.256 0,-7.904 1.984,-9.088 3.456,-9.088 z m -0.16,18.592 c 2.464,0 6.176,-2.72 6.176,-10.208 0,-4.992 -1.824,-7.456 -2.976,-8.512 -0.864,-0.8 -1.888,-1.12 -3.04,-1.12 -3.2,0 -6.208,3.968 -6.208,10.272 0,5.184 2.08,9.568 6.048,9.568 z"
         style=""
         id="path3512" />
    </g>
    <path
       id="path8007"
       d="m 258.52031,677.29264 60,0"
       style="display:inline;fill:none;stroke:#000000;stroke-width:3;stroke-linecap:butt;stroke-linejoin:miter;stroke-miterlimit:4;stroke-dasharray:none;stroke-opacity:1;marker-end:url(#Arrow2Mend-0-7)" />
    <path
       id="path8009"
       d="m 258.16497,747.23633 60,0"
       style="display:inline;fill:none;stroke:#000000;stroke-width:3;stroke-linecap:butt;stroke-linejoin:miter;stroke-miterlimit:4;stroke-dasharray:none;stroke-opacity:1;marker-end:url(#Arrow2Mend-0-7)" />
    <path
       id="path8011"
       d="m 505.1771,712.70964 60,0"
       style="display:inline;fill:none;stroke:#000000;stroke-width:3;stroke-linecap:butt;stroke-linejoin:miter;stroke-miterlimit:4;stroke-dasharray:none;stroke-opacity:1;marker-end:url(#Arrow2Mend-0-7)" />
    <path
       id="path8013"
       d="m 505.59409,677.63051 60,0"
       style="display:inline;fill:none;stroke:#000000;stroke-width:3;stroke-linecap:butt;stroke-linejoin:miter;stroke-miterlimit:4;stroke-dasharray:none;stroke-opacity:1;marker-end:url(#Arrow2Mend-0-7)" />
    <path
       id="path8015"
       d="m 505.23875,747.5742 60,0"
       style="display:inline;fill:none;stroke:#000000;stroke-width:3;stroke-linecap:butt;stroke-linejoin:miter;stroke-miterlimit:4;stroke-dasharray:none;stroke-opacity:1;marker-end:url(#Arrow2Mend-0-7)" />
    <g
       id="g8017"
       style="display:inline"
       transform="translate(-86.459183,339.37177)">
      <g
         transform="matrix(-1,0,0,1,1002.5134,-0.3499843)"
         id="g8019">
        <path
           id="path8028"
           d="m 470,178 -30,20 20,30"
           style="fill:none;stroke:#737373;stroke-width:2;stroke-linecap:butt;stroke-linejoin:miter;stroke-miterlimit:4;stroke-dasharray:none;stroke-opacity:1" />
        <path
           id="path8030"
           d="m 460,228 -5,10 5,0"
           style="fill:none;stroke:#707070;stroke-width:2;stroke-linecap:butt;stroke-linejoin:miter;stroke-miterlimit:4;stroke-dasharray:none;stroke-opacity:1" />
        <path
           id="path8032"
           d="m 460.28659,227.7952 10,-5 0,5"
           style="fill:none;stroke:#707070;stroke-width:2;stroke-linecap:butt;stroke-linejoin:miter;stroke-miterlimit:4;stroke-dasharray:none;stroke-opacity:1" />
      </g>
      <g
         id="g8034">
        <path
           id="path8036"
           d="m 470,178 -30,20 20,30"
           style="fill:none;stroke:#737373;stroke-width:2;stroke-linecap:butt;stroke-linejoin:miter;stroke-miterlimit:4;stroke-dasharray:none;stroke-opacity:1" />
        <path
           id="path8038"
           d="m 460,228 -5,10 5,0"
           style="fill:none;stroke:#707070;stroke-width:2;stroke-linecap:butt;stroke-linejoin:miter;stroke-miterlimit:4;stroke-dasharray:none;stroke-opacity:1" />
        <path
           id="path8040"
           d="m 460.28659,227.7952 10,-5 0,5"
           style="fill:none;stroke:#707070;stroke-width:2;stroke-linecap:butt;stroke-linejoin:miter;stroke-miterlimit:4;stroke-dasharray:none;stroke-opacity:1" />
      </g>
      <ellipse
         style="fill:url(#linearGradient8829);fill-opacity:1;fill-rule:evenodd"
         id="ellipse8042"
         transform="matrix(0.23878146,0,0,0.23878146,393.63599,47.438107)"
         cx="450"
         cy="428.07648"
         rx="181.42857"
         ry="172.85715" />
    </g>
    <g
       transform="translate(450.10332,404.25335)"
       style="font-style:normal;font-variant:normal;font-weight:normal;font-stretch:normal;font-size:32px;line-height:125%;font-family:'Linux Biolinum O';-inkscape-font-specification:Sans;text-align:start;letter-spacing:0px;word-spacing:0px;text-anchor:start;display:inline;fill:#000000;fill-opacity:1;stroke:none"
       id="flowRoot8054">
      <path
         d="m 208.8695,312.07042 0,-8.128 c 0,-3.456 0.192,-4.736 0.256,-5.184 0,-0.16 -0.096,-0.16 -0.224,-0.16 -2.08,0.672 -4.512,1.92 -7.008,2.688 l 0.192,0.928 c 1.44,-0.16 3.008,-0.512 3.648,-0.512 0.576,0 0.576,1.28 0.576,2.432 l 0,7.936 c 0,2.496 -0.032,4.224 -0.256,6.048 l 0.032,0.096 c 0,0 0.896,-0.096 1.472,-0.096 0.64,0 1.536,0.096 1.536,0.096 l 0.064,-0.096 c -0.224,-1.92 -0.288,-3.52 -0.288,-6.048 z"
         style=""
         id="path3509" />
    </g>
    <g
       transform="translate(450.10332,369.25335)"
       style="font-style:normal;font-variant:normal;font-weight:normal;font-stretch:normal;font-size:32px;line-height:125%;font-family:'Linux Biolinum O';-inkscape-font-specification:Sans;text-align:start;letter-spacing:0px;word-spacing:0px;text-anchor:start;display:inline;fill:#000000;fill-opacity:1;stroke:none"
       id="flowRoot8062">
      <path
         d="m 205.8935,299.84642 c 0.544,0 1.056,0.192 1.408,0.512 0.992,0.832 1.856,3.328 1.856,7.616 0,2.944 -0.096,4.608 -0.544,6.24 -0.704,2.656 -2.272,2.976 -2.848,2.976 -2.976,0 -3.328,-5.472 -3.328,-8.256 0,-7.904 1.984,-9.088 3.456,-9.088 z m -0.16,18.592 c 2.464,0 6.176,-2.72 6.176,-10.208 0,-4.992 -1.824,-7.456 -2.976,-8.512 -0.864,-0.8 -1.888,-1.12 -3.04,-1.12 -3.2,0 -6.208,3.968 -6.208,10.272 0,5.184 2.08,9.568 6.048,9.568 z"
         style=""
         id="path3506" />
    </g>
    <g
       transform="translate(450.10332,439.25335)"
       style="font-style:normal;font-variant:normal;font-weight:normal;font-stretch:normal;font-size:32px;line-height:125%;font-family:'Linux Biolinum O';-inkscape-font-specification:Sans;text-align:start;letter-spacing:0px;word-spacing:0px;text-anchor:start;display:inline;fill:#000000;fill-opacity:1;stroke:none"
       id="flowRoot8071">
      <path
         d="m 205.8935,299.84642 c 0.544,0 1.056,0.192 1.408,0.512 0.992,0.832 1.856,3.328 1.856,7.616 0,2.944 -0.096,4.608 -0.544,6.24 -0.704,2.656 -2.272,2.976 -2.848,2.976 -2.976,0 -3.328,-5.472 -3.328,-8.256 0,-7.904 1.984,-9.088 3.456,-9.088 z m -0.16,18.592 c 2.464,0 6.176,-2.72 6.176,-10.208 0,-4.992 -1.824,-7.456 -2.976,-8.512 -0.864,-0.8 -1.888,-1.12 -3.04,-1.12 -3.2,0 -6.208,3.968 -6.208,10.272 0,5.184 2.08,9.568 6.048,9.568 z"
         style=""
         id="path3503" />
    </g>
    <path
       style="display:inline;fill:#ffffff;fill-opacity:0;fill-rule:nonzero;stroke:#000000;stroke-width:2;stroke-linejoin:round;stroke-miterlimit:4;stroke-dasharray:none;stroke-dashoffset:0;stroke-opacity:1"
       d="m 638.54083,657.37177 35,0 0,110 -35,0 z"
       id="rect8079" />
  </g>
</svg>
